<?xml version="1.0" encoding="UTF-8" standalone="no"?>
<!DOCTYPE svg PUBLIC "-//W3C//DTD SVG 1.1//EN" "http://www.w3.org/Graphics/SVG/1.1/DTD/svg11.dtd">
<svg xmlns="http://www.w3.org/2000/svg" version="1.1" viewBox="0.00 0.00 500.00 500.00">
<g stroke-width="2.00" fill="none" stroke-linecap="butt">
<path stroke="#e4e4e3" vector-effect="non-scaling-stroke" d="
  M 145.49 377.25
  Q 145.96 377.53 145.87 378.44
  A 0.78 0.77 -83.4 0 0 146.53 379.28
  Q 152.09 380.02 156.54 380.08
  C 183.18 380.42 208.99 376.14 233.77 367.04
  Q 242.14 363.97 245.01 362.73
  Q 255.06 358.40 265.91 350.92
  Q 277.30 343.07 279.60 341.10
  Q 286.89 334.81 297.51 322.58
  Q 300.35 319.31 303.45 314.46
  C 308.51 306.54 310.03 304.24 314.83 295.28
  Q 318.21 288.96 323.16 283.06
  A 4.54 4.50 2.9 0 1 324.02 282.29
  Q 331.55 277.24 337.22 274.47
  Q 346.35 270.03 354.32 276.22
  Q 355.81 277.37 360.01 280.69
  Q 363.66 283.57 367.27 281.28
  A 2.76 2.73 73.8 0 0 368.54 278.94
  Q 368.50 274.99 367.89 271.00
  Q 366.04 258.82 363.61 242.31
  C 362.55 235.09 360.17 228.36 352.08 226.52
  C 349.93 226.03 347.21 226.33 344.72 226.42
  C 338.80 226.63 333.18 223.75 329.24 219.47
  C 326.34 216.33 324.34 210.50 323.94 206.56
  Q 323.00 197.45 322.25 185.85
  Q 321.96 181.41 321.31 178.75
  C 319.81 172.60 319.13 167.10 316.49 161.52
  Q 312.76 153.63 307.15 146.35
  C 299.87 136.92 290.12 131.44 278.74 128.13
  C 264.81 124.07 249.86 125.43 237.66 133.23
  C 235.06 134.89 232.07 136.22 229.80 138.24
  Q 223.45 143.86 220.10 148.85
  Q 212.30 160.50 209.16 174.90
  C 207.39 183.06 205.77 197.05 200.61 206.80
  Q 197.30 213.06 191.00 214.47
  C 185.21 215.77 181.37 214.31 174.99 212.36
  C 169.61 210.72 163.11 213.62 158.84 217.43
  Q 156.70 219.33 154.23 224.44
  Q 148.02 237.25 146.55 241.81
  Q 142.96 252.96 140.70 258.98
  C 139.45 262.31 136.39 269.52 138.61 272.10
  C 140.53 274.32 144.62 272.56 146.71 271.21
  C 156.26 265.04 161.75 259.64 171.71 263.32
  Q 176.24 264.99 179.89 268.65
  Q 184.59 273.37 185.85 274.89
  C 191.63 281.88 192.78 290.05 191.82 298.81
  Q 190.54 310.44 186.96 320.23
  Q 185.57 324.04 180.08 334.99
  Q 176.76 341.62 171.35 348.70
  Q 163.60 358.85 156.99 365.44
  Q 153.08 369.34 151.26 370.77
  Q 146.71 374.37 145.29 375.95
  A 0.85 0.85 0.0 0 0 145.49 377.25"
/>
<path stroke="#e4e4e3" vector-effect="non-scaling-stroke" d="
  M 140.54 271.45
  Q 142.20 271.70 143.84 270.60
  Q 149.07 267.09 154.72 263.58
  Q 159.53 260.59 162.93 260.24
  C 168.66 259.66 173.57 260.61 178.39 264.55
  C 184.50 269.53 188.80 273.60 191.92 280.71
  C 199.16 297.18 190.58 321.10 182.31 335.57
  Q 172.09 353.47 162.69 362.21
  C 160.15 364.58 158.33 366.01 156.26 368.42
  Q 152.41 372.90 146.99 376.53
  A 0.89 0.89 0.0 0 0 147.51 378.16
  C 153.06 377.99 158.48 378.40 163.51 378.27
  C 183.39 377.74 204.02 374.63 223.32 368.48
  Q 235.57 364.58 237.17 363.91
  Q 247.57 359.58 257.08 354.08
  Q 259.34 352.78 273.60 343.01
  Q 278.67 339.53 284.30 333.79
  Q 290.80 327.18 297.43 319.69
  Q 299.40 317.46 300.42 315.66
  C 303.24 310.71 308.04 303.72 311.33 297.33
  C 314.25 291.65 316.44 286.93 320.21 283.40
  Q 327.57 276.51 337.27 272.19
  C 343.04 269.62 348.31 268.93 353.28 272.95
  Q 356.26 275.37 361.48 279.75
  Q 363.25 281.23 365.22 281.14
  A 1.99 1.99 0.0 0 0 367.09 278.83
  Q 365.35 268.10 364.14 256.94
  Q 362.89 245.37 360.34 235.92
  Q 358.74 229.98 352.66 228.23
  C 350.07 227.49 346.60 228.29 344.04 228.41
  C 336.34 228.80 330.65 224.91 326.29 218.97
  Q 322.94 214.40 322.39 208.51
  Q 321.59 199.87 320.85 190.81
  Q 319.93 179.56 319.01 175.80
  C 316.88 167.15 314.20 158.92 308.81 151.68
  C 304.14 145.42 299.97 139.89 294.46 136.70
  C 288.81 133.43 282.14 130.19 275.92 128.92
  C 253.41 124.36 230.40 134.81 218.95 154.30
  C 212.43 165.41 210.46 178.85 207.94 192.62
  C 206.51 200.39 204.21 207.60 198.27 213.16
  C 194.00 217.16 188.92 217.74 183.50 216.96
  C 179.70 216.41 174.61 213.58 170.10 214.08
  C 165.34 214.60 159.54 218.54 157.37 222.64
  Q 153.67 229.58 149.22 241.67
  Q 143.04 258.41 139.32 269.43
  A 1.55 1.54 -76.3 0 0 140.54 271.45"
/>
</g>
<path fill="#ffffff" d="
  M 129.93 382.65
  C 131.47 380.33 135.69 377.35 140.31 373.94
  Q 146.76 369.18 149.88 366.17
  C 162.93 353.54 173.29 340.79 180.73 324.73
  C 185.68 314.04 188.86 301.84 187.74 290.09
  C 186.88 281.05 180.19 273.53 172.59 268.84
  C 167.50 265.69 162.62 266.26 157.93 269.20
  Q 156.75 269.95 147.50 275.99
  C 142.21 279.44 134.40 277.58 133.51 270.76
  Q 133.15 268.05 134.30 264.53
  Q 138.47 251.74 144.52 235.76
  Q 147.78 227.13 151.71 220.47
  C 157.24 211.09 164.80 206.20 176.16 208.17
  C 179.07 208.67 183.57 210.42 188.02 210.40
  C 197.04 210.36 200.62 197.47 201.68 190.69
  Q 204.26 174.26 208.21 162.20
  Q 211.70 151.54 220.67 141.15
  C 235.28 124.22 257.86 118.21 279.49 123.49
  Q 301.31 128.81 314.62 148.67
  C 323.91 162.52 326.55 178.73 327.24 196.57
  C 327.69 208.33 330.14 222.79 345.24 222.02
  C 356.49 221.45 362.82 224.45 366.19 235.52
  Q 368.20 242.12 369.93 253.27
  Q 372.98 272.93 373.31 277.99
  C 373.82 285.76 365.67 289.05 359.61 285.38
  Q 356.48 283.49 349.80 278.26
  C 343.18 273.06 328.98 283.38 324.70 288.02
  C 320.21 292.89 315.98 301.97 313.63 306.13
  Q 296.39 336.64 268.03 354.76
  Q 244.01 370.12 216.38 377.09
  Q 187.06 384.48 161.74 384.22
  Q 145.67 384.06 130.15 383.10
  A 0.29 0.29 0.0 0 1 129.93 382.65
  Z
  M 145.49 377.25
  Q 145.96 377.53 145.87 378.44
  A 0.78 0.77 -83.4 0 0 146.53 379.28
  Q 152.09 380.02 156.54 380.08
  C 183.18 380.42 208.99 376.14 233.77 367.04
  Q 242.14 363.97 245.01 362.73
  Q 255.06 358.40 265.91 350.92
  Q 277.30 343.07 279.60 341.10
  Q 286.89 334.81 297.51 322.58
  Q 300.35 319.31 303.45 314.46
  C 308.51 306.54 310.03 304.24 314.83 295.28
  Q 318.21 288.96 323.16 283.06
  A 4.54 4.50 2.9 0 1 324.02 282.29
  Q 331.55 277.24 337.22 274.47
  Q 346.35 270.03 354.32 276.22
  Q 355.81 277.37 360.01 280.69
  Q 363.66 283.57 367.27 281.28
  A 2.76 2.73 73.8 0 0 368.54 278.94
  Q 368.50 274.99 367.89 271.00
  Q 366.04 258.82 363.61 242.31
  C 362.55 235.09 360.17 228.36 352.08 226.52
  C 349.93 226.03 347.21 226.33 344.72 226.42
  C 338.80 226.63 333.18 223.75 329.24 219.47
  C 326.34 216.33 324.34 210.50 323.94 206.56
  Q 323.00 197.45 322.25 185.85
  Q 321.96 181.41 321.31 178.75
  C 319.81 172.60 319.13 167.10 316.49 161.52
  Q 312.76 153.63 307.15 146.35
  C 299.87 136.92 290.12 131.44 278.74 128.13
  C 264.81 124.07 249.86 125.43 237.66 133.23
  C 235.06 134.89 232.07 136.22 229.80 138.24
  Q 223.45 143.86 220.10 148.85
  Q 212.30 160.50 209.16 174.90
  C 207.39 183.06 205.77 197.05 200.61 206.80
  Q 197.30 213.06 191.00 214.47
  C 185.21 215.77 181.37 214.31 174.99 212.36
  C 169.61 210.72 163.11 213.62 158.84 217.43
  Q 156.70 219.33 154.23 224.44
  Q 148.02 237.25 146.55 241.81
  Q 142.96 252.96 140.70 258.98
  C 139.45 262.31 136.39 269.52 138.61 272.10
  C 140.53 274.32 144.62 272.56 146.71 271.21
  C 156.26 265.04 161.75 259.64 171.71 263.32
  Q 176.24 264.99 179.89 268.65
  Q 184.59 273.37 185.85 274.89
  C 191.63 281.88 192.78 290.05 191.82 298.81
  Q 190.54 310.44 186.96 320.23
  Q 185.57 324.04 180.08 334.99
  Q 176.76 341.62 171.35 348.70
  Q 163.60 358.85 156.99 365.44
  Q 153.08 369.34 151.26 370.77
  Q 146.71 374.37 145.29 375.95
  A 0.85 0.85 0.0 0 0 145.49 377.25
  Z"
/>
<path fill="#c9c9c7" d="
  M 145.49 377.25
  A 0.85 0.85 0.0 0 1 145.29 375.95
  Q 146.71 374.37 151.26 370.77
  Q 153.08 369.34 156.99 365.44
  Q 163.60 358.85 171.35 348.70
  Q 176.76 341.62 180.08 334.99
  Q 185.57 324.04 186.96 320.23
  Q 190.54 310.44 191.82 298.81
  C 192.78 290.05 191.63 281.88 185.85 274.89
  Q 184.59 273.37 179.89 268.65
  Q 176.24 264.99 171.71 263.32
  C 161.75 259.64 156.26 265.04 146.71 271.21
  C 144.62 272.56 140.53 274.32 138.61 272.10
  C 136.39 269.52 139.45 262.31 140.70 258.98
  Q 142.96 252.96 146.55 241.81
  Q 148.02 237.25 154.23 224.44
  Q 156.70 219.33 158.84 217.43
  C 163.11 213.62 169.61 210.72 174.99 212.36
  C 181.37 214.31 185.21 215.77 191.00 214.47
  Q 197.30 213.06 200.61 206.80
  C 205.77 197.05 207.39 183.06 209.16 174.90
  Q 212.30 160.50 220.10 148.85
  Q 223.45 143.86 229.80 138.24
  C 232.07 136.22 235.06 134.89 237.66 133.23
  C 249.86 125.43 264.81 124.07 278.74 128.13
  C 290.12 131.44 299.87 136.92 307.15 146.35
  Q 312.76 153.63 316.49 161.52
  C 319.13 167.10 319.81 172.60 321.31 178.75
  Q 321.96 181.41 322.25 185.85
  Q 323.00 197.45 323.94 206.56
  C 324.34 210.50 326.34 216.33 329.24 219.47
  C 333.18 223.75 338.80 226.63 344.72 226.42
  C 347.21 226.33 349.93 226.03 352.08 226.52
  C 360.17 228.36 362.55 235.09 363.61 242.31
  Q 366.04 258.82 367.89 271.00
  Q 368.50 274.99 368.54 278.94
  A 2.76 2.73 73.8 0 1 367.27 281.28
  Q 363.66 283.57 360.01 280.69
  Q 355.81 277.37 354.32 276.22
  Q 346.35 270.03 337.22 274.47
  Q 331.55 277.24 324.02 282.29
  A 4.54 4.50 2.9 0 0 323.16 283.06
  Q 318.21 288.96 314.83 295.28
  C 310.03 304.24 308.51 306.54 303.45 314.46
  Q 300.35 319.31 297.51 322.58
  Q 286.89 334.81 279.60 341.10
  Q 277.30 343.07 265.91 350.92
  Q 255.06 358.40 245.01 362.73
  Q 242.14 363.97 233.77 367.04
  C 208.99 376.14 183.18 380.42 156.54 380.08
  Q 152.09 380.02 146.53 379.28
  A 0.78 0.77 -83.4 0 1 145.87 378.44
  Q 145.96 377.53 145.49 377.25
  Z
  M 140.54 271.45
  Q 142.20 271.70 143.84 270.60
  Q 149.07 267.09 154.72 263.58
  Q 159.53 260.59 162.93 260.24
  C 168.66 259.66 173.57 260.61 178.39 264.55
  C 184.50 269.53 188.80 273.60 191.92 280.71
  C 199.16 297.18 190.58 321.10 182.31 335.57
  Q 172.09 353.47 162.69 362.21
  C 160.15 364.58 158.33 366.01 156.26 368.42
  Q 152.41 372.90 146.99 376.53
  A 0.89 0.89 0.0 0 0 147.51 378.16
  C 153.06 377.99 158.48 378.40 163.51 378.27
  C 183.39 377.74 204.02 374.63 223.32 368.48
  Q 235.57 364.58 237.17 363.91
  Q 247.57 359.58 257.08 354.08
  Q 259.34 352.78 273.60 343.01
  Q 278.67 339.53 284.30 333.79
  Q 290.80 327.18 297.43 319.69
  Q 299.40 317.46 300.42 315.66
  C 303.24 310.71 308.04 303.72 311.33 297.33
  C 314.25 291.65 316.44 286.93 320.21 283.40
  Q 327.57 276.51 337.27 272.19
  C 343.04 269.62 348.31 268.93 353.28 272.95
  Q 356.26 275.37 361.48 279.75
  Q 363.25 281.23 365.22 281.14
  A 1.99 1.99 0.0 0 0 367.09 278.83
  Q 365.35 268.10 364.14 256.94
  Q 362.89 245.37 360.34 235.92
  Q 358.74 229.98 352.66 228.23
  C 350.07 227.49 346.60 228.29 344.04 228.41
  C 336.34 228.80 330.65 224.91 326.29 218.97
  Q 322.94 214.40 322.39 208.51
  Q 321.59 199.87 320.85 190.81
  Q 319.93 179.56 319.01 175.80
  C 316.88 167.15 314.20 158.92 308.81 151.68
  C 304.14 145.42 299.97 139.89 294.46 136.70
  C 288.81 133.43 282.14 130.19 275.92 128.92
  C 253.41 124.36 230.40 134.81 218.95 154.30
  C 212.43 165.41 210.46 178.85 207.94 192.62
  C 206.51 200.39 204.21 207.60 198.27 213.16
  C 194.00 217.16 188.92 217.74 183.50 216.96
  C 179.70 216.41 174.61 213.58 170.10 214.08
  C 165.34 214.60 159.54 218.54 157.37 222.64
  Q 153.67 229.58 149.22 241.67
  Q 143.04 258.41 139.32 269.43
  A 1.55 1.54 -76.3 0 0 140.54 271.45
  Z"
/>
<path fill="#ffffff" d="
  M 140.54 271.45
  A 1.55 1.54 -76.3 0 1 139.32 269.43
  Q 143.04 258.41 149.22 241.67
  Q 153.67 229.58 157.37 222.64
  C 159.54 218.54 165.34 214.60 170.10 214.08
  C 174.61 213.58 179.70 216.41 183.50 216.96
  C 188.92 217.74 194.00 217.16 198.27 213.16
  C 204.21 207.60 206.51 200.39 207.94 192.62
  C 210.46 178.85 212.43 165.41 218.95 154.30
  C 230.40 134.81 253.41 124.36 275.92 128.92
  C 282.14 130.19 288.81 133.43 294.46 136.70
  C 299.97 139.89 304.14 145.42 308.81 151.68
  C 314.20 158.92 316.88 167.15 319.01 175.80
  Q 319.93 179.56 320.85 190.81
  Q 321.59 199.87 322.39 208.51
  Q 322.94 214.40 326.29 218.97
  C 330.65 224.91 336.34 228.80 344.04 228.41
  C 346.60 228.29 350.07 227.49 352.66 228.23
  Q 358.74 229.98 360.34 235.92
  Q 362.89 245.37 364.14 256.94
  Q 365.35 268.10 367.09 278.83
  A 1.99 1.99 0.0 0 1 365.22 281.14
  Q 363.25 281.23 361.48 279.75
  Q 356.26 275.37 353.28 272.95
  C 348.31 268.93 343.04 269.62 337.27 272.19
  Q 327.57 276.51 320.21 283.40
  C 316.44 286.93 314.25 291.65 311.33 297.33
  C 308.04 303.72 303.24 310.71 300.42 315.66
  Q 299.40 317.46 297.43 319.69
  Q 290.80 327.18 284.30 333.79
  Q 278.67 339.53 273.60 343.01
  Q 259.34 352.78 257.08 354.08
  Q 247.57 359.58 237.17 363.91
  Q 235.57 364.58 223.32 368.48
  C 204.02 374.63 183.39 377.74 163.51 378.27
  C 158.48 378.40 153.06 377.99 147.51 378.16
  A 0.89 0.89 0.0 0 1 146.99 376.53
  Q 152.41 372.90 156.26 368.42
  C 158.33 366.01 160.15 364.58 162.69 362.21
  Q 172.09 353.47 182.31 335.57
  C 190.58 321.10 199.16 297.18 191.92 280.71
  C 188.80 273.60 184.50 269.53 178.39 264.55
  C 173.57 260.61 168.66 259.66 162.93 260.24
  Q 159.53 260.59 154.72 263.58
  Q 149.07 267.09 143.84 270.60
  Q 142.20 271.70 140.54 271.45
  Z
  M 258.9699 174.3391
  A 15.93 11.74 -85.5 0 0 246.0162 189.2989
  A 15.93 11.74 -85.5 0 0 256.4701 206.1009
  A 15.93 11.74 -85.5 0 0 269.4238 191.1411
  A 15.93 11.74 -85.5 0 0 258.9699 174.3391
  Z
  M 303.0348 175.7077
  A 15.25 8.96 -95.4 0 0 295.5498 191.7332
  A 15.25 8.96 -95.4 0 0 305.9052 206.0723
  A 15.25 8.96 -95.4 0 0 313.3902 190.0468
  A 15.25 8.96 -95.4 0 0 303.0348 175.7077
  Z"
/>
</svg>
